<svg xmlns="http://www.w3.org/2000/svg" xmlns:xlink="http://www.w3.org/1999/xlink" version="1.1" baseProfile="full" width="76" height="76" viewBox="0 0 76.00 76.00" enable-background="new 0 0 76.00 76.00" xml:space="preserve">
  <defs>
        <linearGradient id="grad1" x1="0%" y1="0%" x2="0%" y2="200%">
            <stop offset="0%" stop-color="white"/>
            <stop offset="100%" stop-color="black"/>
        </linearGradient>
    <radialGradient id="grad2" cx="50%" cy="50%" r="200%" fx="50%" fy="50%">
      <stop offset="0%" style="stop-color:rgb(255,255,255);
      stop-opacity:1" />
      <stop offset="100%" style="stop-color:rgb(0,0,0);stop-opacity:1" />
    </radialGradient>
<filter id="dropshadow" height="130%">
      <feGaussianBlur in="SourceAlpha" stdDeviation="1"/> 
      <feOffset dx="1" dy="1" result="offsetblur"/> 
      <feMerge> 
        <feMergeNode/>
        <feMergeNode in="SourceGraphic"/> 
      </feMerge>
    </filter>
    </defs>
	<path id="svg_4" filter="url(#dropshadow)" d="m31.0833,16.5833c6.1212,0 11.0834,4.9622 11.0834,11.0834c0,1.2454 -0.2055,2.4429 -0.5843,3.5604l0.6274,0.4728l1.5402,2.6959l3.2062,-1.1018l-0.8866,5.7763l4.9918,-0.7003l-0.1685,5.6223l5.5237,-2.8673l1.5244,1.5366l1.6423,8.0778l-6.6521,0.9349l-18.0415,-13.5952c-1.187,0.434 -2.469,0.6709 -3.8064,0.6709c-6.1211,0 -11.0833,-4.9622 -11.0833,-11.0833c0,-6.1212 4.9622,-11.0834 11.0833,-11.0834zm-3.1666,5.5417c-1.3117,0 -2.375,1.0633 -2.375,2.375c0,1.3117 1.0633,2.375 2.375,2.375c1.3116,0 2.375,-1.0633 2.375,-2.375c0,-1.3117 -1.0634,-2.375 -2.375,-2.375z" stroke-linejoin="round" stroke-width="0.2" fill="url(#grad2)"/>
  <path fill="url(#grad2)" stroke-width="0.2" stroke-linejoin="round" d="m23.3993,44.6839l3.932,-3.3723c0.7381,0.3139 1.439,0.6982 2.0942,1.1447l-0.7062,5.1294l5.165,0.3958c0.2954,0.7307 0.5221,1.4965 0.6723,2.2895l-4.1274,3.1284l3.3723,3.9319c-0.3138,0.7381 -0.6982,1.439 -1.1447,2.0942l-5.1294,-0.7062l-0.3957,5.165c-0.7308,0.2954 -1.4966,0.52209 -2.2896,0.67229l-3.1283,-4.1274l-3.932,3.3723c-0.7381,-0.3138 -1.439,-0.6982 -2.0942,-1.1447l0.7062,-5.1294l-5.165,-0.3957c-0.2954,-0.7308 -0.5221,-1.4966 -0.6722,-2.2896l4.1273,-3.1283l-3.3723,-3.932c0.3139,-0.7381 0.6982,-1.439 1.1447,-2.0942l5.1294,0.7062l0.3958,-5.1649c0.7307,-0.2955 1.4965,-0.5222 2.2895,-0.6723l3.1283,4.1273zm-0.8428,2.9873c-2.6981,0 -4.8854,2.1872 -4.8854,4.8854c0,2.6981 2.1873,4.8854 4.8854,4.8854c2.6982,0 4.8854,-2.1873 4.8854,-4.8854c0,-2.6982 -2.1872,-4.8854 -4.8854,-4.8854zm-0.0565,1.3288c1.933,0 3.5,1.567 3.5,3.5c0,1.933 -1.567,3.5 -3.5,3.5c-1.933,0 -3.5,-1.567 -3.5,-3.5c0,-1.933 1.567,-3.5 3.5,-3.5z" filter="url(#dropshadow)" id="svg_1"/>
</svg>

