<svg xmlns="http://www.w3.org/2000/svg" xmlns:xlink="http://www.w3.org/1999/xlink" version="1.1" baseProfile="full" width="76" height="76" viewBox="0 0 76.00 76.00" enable-background="new 0 0 76.00 76.00" xml:space="preserve">
  <defs>
        <linearGradient id="grad1" x1="0%" y1="0%" x2="0%" y2="200%">
            <stop offset="0%" stop-color="white"/>
            <stop offset="150%" stop-color="black"/>
        </linearGradient>
    <radialGradient id="grad2" cx="50%" cy="50%" r="200%" fx="50%" fy="50%">
      <stop offset="0%" style="stop-color:rgb(255,255,255);
      stop-opacity:1" />
      <stop offset="100%" style="stop-color:rgb(0,0,0);stop-opacity:1" />
    </radialGradient>
<filter id="dropshadow" height="130%">
      <feGaussianBlur in="SourceAlpha" stdDeviation="1"/> 
      <feOffset dx="1" dy="1" result="offsetblur"/> 
      <feMerge> 
        <feMergeNode/>
        <feMergeNode in="SourceGraphic"/> 
      </feMerge>
    </filter>
    </defs>
	<path fill="url(#grad2)" style="filter:url(#dropshadow)" fill-opacity="1" stroke-width="0.2" stroke-linejoin="round" d="M 37.2083,49.0833C 39.3945,49.0833 41.1667,50.8555 41.1667,53.0417C 41.1667,55.2278 39.3945,57 37.2083,57C 35.0222,57 33.25,55.2278 33.25,53.0417C 33.25,50.8555 35.0222,49.0833 37.2083,49.0833 Z M 38,17.4167C 44.9956,17.4167 50.6666,21.9416 50.6666,28.5C 50.6666,30.875 49.0833,34.8333 45.9167,36.4167C 42.75,38 41.1667,40.1267 41.1667,42.75L 41.1667,45.9167L 33.25,45.9167L 33.25,43.5417C 33.25,38.1571 38,34.8333 39.5833,33.25C 42.75,30.0833 42.75,29.644 42.75,28.5C 42.75,25.8767 40.6233,23.75 38,23.75C 35.3766,23.75 33.25,25.8767 33.25,28.5L 33.25,30.875L 25.3333,30.875L 25.3333,29.2917C 25.3333,22.7333 31.0044,17.4167 38,17.4167 Z "/>
</svg>
